<svg xmlns="http://www.w3.org/2000/svg" viewBox="0 0 44.616 40"><defs><style>.a{fill:#00a3fd;}</style></defs><path class="a" d="M6.154,1.539A1.53,1.53,0,0,1,7.7,0H15.38a1.539,1.539,0,1,1,0,3.078H7.7A1.536,1.536,0,0,1,6.154,1.539Zm21.539,0A1.53,1.53,0,0,1,29.235,0h7.684a1.539,1.539,0,1,1,0,3.078H29.235A1.536,1.536,0,0,1,27.692,1.539ZM1.539,6.154A1.538,1.538,0,0,1,3.075,4.615H20a1.539,1.539,0,0,1,0,3.078H3.075A1.533,1.533,0,0,1,1.539,6.154Zm21.539,0a1.538,1.538,0,0,1,1.536-1.539H41.541a1.539,1.539,0,0,1,0,3.078H24.614a1.533,1.533,0,0,1-1.536-1.539ZM0,10.769A1.54,1.54,0,0,1,1.53,9.23H27.7a1.539,1.539,0,0,1,0,3.078H1.53A1.53,1.53,0,0,1,0,10.769Zm30.769,0A1.536,1.536,0,0,1,32.3,9.23H43.08a1.539,1.539,0,0,1,0,3.078H32.3A1.533,1.533,0,0,1,30.769,10.769ZM7.693,15.385a1.543,1.543,0,0,1,1.526-1.539H36.936a1.539,1.539,0,0,1,0,3.078H9.219A1.529,1.529,0,0,1,7.693,15.385Zm32.307,0a1.533,1.533,0,0,1,1.537-1.539h1.541a1.539,1.539,0,0,1,0,3.078H41.537A1.534,1.534,0,0,1,40,15.385ZM0,20a1.543,1.543,0,0,1,1.55-1.539H21.528a1.539,1.539,0,1,1,0,3.077H1.55A1.54,1.54,0,0,1,0,20Zm24.615,0a1.547,1.547,0,0,1,1.542-1.539H41.535a1.539,1.539,0,1,1,0,3.077H26.157A1.537,1.537,0,0,1,24.615,20ZM0,15.385a1.538,1.538,0,0,1,1.553-1.539H4.6a1.539,1.539,0,1,1,0,3.078H1.553A1.542,1.542,0,0,1,0,15.385Zm26.154,9.23a1.536,1.536,0,0,1,1.535-1.539H38.465a1.539,1.539,0,0,1,0,3.077H27.689a1.533,1.533,0,0,1-1.535-1.539Zm-21.539,0a1.538,1.538,0,0,1,1.536-1.539H23.079a1.539,1.539,0,0,1,0,3.077H6.151a1.533,1.533,0,0,1-1.536-1.539Zm6.154,4.616a1.543,1.543,0,0,1,1.549-1.539h18.44a1.539,1.539,0,1,1,0,3.077H12.317a1.54,1.54,0,0,1-1.549-1.539Zm4.616,4.615a1.536,1.536,0,0,1,1.535-1.539H27.7a1.539,1.539,0,0,1,0,3.077H16.92A1.533,1.533,0,0,1,15.385,33.846ZM20,38.461a1.533,1.533,0,0,1,1.537-1.539h1.541a1.539,1.539,0,0,1,0,3.077H21.537A1.534,1.534,0,0,1,20,38.461Z"/></svg>